<?xml version="1.0" encoding="UTF-8"?>
<svg width="30px" height="37px" viewBox="0 0 30 37" version="1.1" xmlns="http://www.w3.org/2000/svg" xmlns:xlink="http://www.w3.org/1999/xlink">
    <!-- Generator: Sketch 55.2 (78181) - https://sketchapp.com -->
    <title>hiking-solid</title>
    <desc>Created with Sketch.</desc>
    <defs>
        <filter x="-65.0%" y="-48.1%" width="230.0%" height="196.3%" filterUnits="objectBoundingBox" id="filter-1">
            <feOffset dx="0" dy="2" in="SourceAlpha" result="shadowOffsetOuter1"></feOffset>
            <feGaussianBlur stdDeviation="2" in="shadowOffsetOuter1" result="shadowBlurOuter1"></feGaussianBlur>
            <feColorMatrix values="0 0 0 0 0   0 0 0 0 0   0 0 0 0 0  0 0 0 0.5 0" type="matrix" in="shadowBlurOuter1" result="shadowMatrixOuter1"></feColorMatrix>
            <feMerge>
                <feMergeNode in="shadowMatrixOuter1"></feMergeNode>
                <feMergeNode in="SourceGraphic"></feMergeNode>
            </feMerge>
        </filter>
    </defs>
    <g id="Page-1" stroke="none" stroke-width="1" fill="none" fill-rule="evenodd">
        <g id="hiking-solid" filter="url(#filter-1)" transform="translate(5.000000, 3.000000)" fill="#3A9505" fill-rule="nonzero" stroke="#010101">
            <path d="M4.21632558,24.9022675 C3.99340411,25.8071717 4.53612413,26.7231499 5.4288517,26.9488487 C5.56479213,26.9836527 5.70073255,26.9989453 5.83511045,26.9989453 C6.58148069,26.9989453 7.26066199,26.4874319 7.45077025,25.7212164 L8.7653819,20.3967305 L6.01636435,17.6134646 L4.21632558,24.9022675 Z M4.99186312,14.5602039 L7.1356593,6.16980137 C7.24972425,5.72578661 6.97211411,5.27597117 6.51481259,5.16470381 C4.22934669,4.60994902 1.91315097,5.95939532 1.34178449,8.17946915 L0.0256103055,13.3541923 C-0.0884546516,13.7982071 0.189155495,14.2480225 0.646457013,14.3592899 L3.95694499,15.1634734 C4.41476735,15.2742134 4.87779816,15.0042187 4.99186312,14.5602039 Z M19.1671685,8.43733521 L18.3338172,8.43733521 C17.8733906,8.43733521 17.5004659,8.81490596 17.5004659,9.28106873 L17.5004659,10.1248022 L15.6905311,10.1248022 L13.2540203,7.65793637 C12.6764037,7.0720689 11.9071162,6.74986817 11.0893903,6.74986817 C9.68206832,6.74986817 8.46068784,7.71488838 8.11901381,9.09755669 L6.71690028,14.7779926 C6.57504567,15.3530879 6.74150666,15.9613746 7.15545139,16.380559 L11.6670069,20.9483213 L11.6670069,25.3120056 C11.6670069,26.2438038 12.4133772,26.9994727 13.3337095,26.9994727 C14.2540418,26.9994727 15.000412,26.2438038 15.000412,25.3120056 L15.000412,20.9483213 C15.000412,20.0471085 14.6535296,19.1996836 14.0238285,18.5621375 L11.5852343,16.0931622 C11.593047,16.0667956 11.6107557,16.0462296 11.6175267,16.0188082 L12.6534865,11.822816 L13.8217408,13.0056249 C14.1342476,13.322025 14.558215,13.5002637 14.9998912,13.5002637 L17.4999451,13.5002637 L17.4999451,26.1562665 C17.4999451,26.6224292 17.8728698,27 18.3332963,27 L19.1666476,27 C19.6270742,27 19.9999995,26.6224292 19.9999995,26.1562665 L19.9999995,9.28106873 C20.0005198,8.81490596 19.6275951,8.43733521 19.1671685,8.43733521 Z M12.5003582,5.06240112 C13.8811171,5.06240112 15.000412,3.92916154 15.000412,2.53120056 C15.000412,1.13323959 13.8811171,0 12.5003582,0 C11.1195993,0 10.0003043,1.13323959 10.0003043,2.53120056 C10.0003043,3.92916154 11.1195993,5.06240112 12.5003582,5.06240112 Z" id="Shape"></path>
        </g>
    </g>
</svg>