<?xml version="1.0" encoding="UTF-8"?>
<svg width="20px" height="20px" viewBox="0 0 20 20" version="1.1" xmlns="http://www.w3.org/2000/svg" xmlns:xlink="http://www.w3.org/1999/xlink">
    <!-- Generator: Sketch 55.2 (78181) - https://sketchapp.com -->
    <title>question-circle-regular</title>
    <desc>Created with Sketch.</desc>
    <g id="Page-1" stroke="none" stroke-width="1" fill="none" fill-rule="evenodd">
        <g id="question-circle-regular" fill="#FE1818" fill-rule="nonzero">
            <path d="M10,0 C4.47754032,0 0,4.47915323 0,10 C0,15.5240726 4.47754032,20 10,20 C15.5224597,20 20,15.5240726 20,10 C20,4.47915323 15.5224597,0 10,0 Z M10,18.0645161 C5.54306452,18.0645161 1.93548387,14.4584274 1.93548387,10 C1.93548387,5.54455645 5.54322581,1.93548387 10,1.93548387 C14.4552823,1.93548387 18.0645161,5.54318548 18.0645161,10 C18.0645161,14.4568548 14.4584274,18.0645161 10,18.0645161 Z M14.3243548,7.77419355 C14.3243548,10.4779032 11.4041532,10.5195161 11.4041532,11.5186694 L11.4041532,11.7741935 C11.4041532,12.0414113 11.1875,12.2580645 10.9202823,12.2580645 L9.07967742,12.2580645 C8.81245968,12.2580645 8.59580645,12.0414113 8.59580645,11.7741935 L8.59580645,11.4250403 C8.59580645,9.98370968 9.68854839,9.40754032 10.5143145,8.94455645 C11.2224194,8.54758065 11.6564113,8.27758065 11.6564113,7.75185484 C11.6564113,7.05645161 10.7693548,6.59487903 10.0522177,6.59487903 C9.11717742,6.59487903 8.68552419,7.0375 8.07875,7.80330645 C7.91516129,8.00975806 7.61665323,8.04810484 7.40673387,7.88895161 L6.28479839,7.03822581 C6.07887097,6.88209677 6.03274194,6.59201613 6.17818548,6.37842742 C7.1308871,4.97947581 8.34435484,4.19354839 10.233629,4.19354839 C12.2122984,4.19354839 14.3243548,5.73806452 14.3243548,7.77419355 L14.3243548,7.77419355 Z M11.6935484,14.516129 C11.6935484,15.4499597 10.9338306,16.2096774 10,16.2096774 C9.06616935,16.2096774 8.30645161,15.4499597 8.30645161,14.516129 C8.30645161,13.5822984 9.06616935,12.8225806 10,12.8225806 C10.9338306,12.8225806 11.6935484,13.5822984 11.6935484,14.516129 Z" id="Shape"></path>
        </g>
    </g>
</svg>