<?xml version="1.0" encoding="UTF-8"?>
<svg width="22px" height="29px" viewBox="0 0 22 29" version="1.1" xmlns="http://www.w3.org/2000/svg" xmlns:xlink="http://www.w3.org/1999/xlink">
    <!-- Generator: Sketch 55.2 (78181) - https://sketchapp.com -->
    <title>tree-solid</title>
    <desc>Created with Sketch.</desc>
    <g id="Page-1" stroke="none" stroke-width="1" fill="none" fill-rule="evenodd">
        <g id="tree-solid" transform="translate(1.000000, 1.000000)" fill="#ADA3E0" fill-rule="nonzero" stroke="#000000">
            <path d="M19.7036458,19.7651042 L15.5427083,15.0520833 L17.1380208,15.0520833 C17.6072917,15.0520833 18.0223958,14.7916667 18.2203125,14.371875 C18.4182292,13.953125 18.353125,13.4729167 18.0494792,13.1192708 L13.9802083,8.38541667 L15.4848958,8.38541667 C15.9588542,8.38541667 16.3859375,8.10677083 16.5713542,7.6765625 C16.7546875,7.253125 16.6682292,6.76041667 16.3505208,6.42239583 L10.6072917,0.303645833 C10.2932292,-0.0322916667 9.70729167,-0.0322916667 9.39270833,0.303645833 L3.64895833,6.42239583 C3.33125,6.76041667 3.2453125,7.253125 3.428125,7.6765625 C3.61354167,8.10677083 4.04114583,8.38541667 4.51510417,8.38541667 L6.01979167,8.38541667 L1.95,13.1203125 C1.64739583,13.4734375 1.58229167,13.953125 1.7796875,14.3723958 C1.97760417,14.7916667 2.3921875,15.0520833 2.86197917,15.0520833 L4.45729167,15.0520833 L0.296354167,19.7651042 C-0.0161458333,20.11875 -0.0869791667,20.603125 0.1109375,21.0286458 C0.30625,21.4479167 0.7359375,21.71875 1.20520833,21.71875 L8.33333333,21.71875 L8.33333333,22.9921875 L6.75572917,25.5130208 C6.47864583,26.0671875 6.88177083,26.7192708 7.50104167,26.7192708 L12.4989583,26.7192708 C13.1182292,26.7192708 13.5213542,26.0671875 13.2442708,25.5130208 L11.6666667,22.9921875 L11.6666667,21.71875 L18.7947917,21.71875 C19.2640625,21.71875 19.69375,21.4479167 19.8890625,21.0286458 C20.0869792,20.603125 20.0161458,20.11875 19.7036458,19.7651042 Z" id="Path"></path>
        </g>
    </g>
</svg>