<?xml version="1.0" encoding="UTF-8"?>
<svg width="22px" height="22px" viewBox="0 0 22 22" version="1.1" xmlns="http://www.w3.org/2000/svg" xmlns:xlink="http://www.w3.org/1999/xlink">
    <!-- Generator: Sketch 55.2 (78181) - https://sketchapp.com -->
    <title>map-signs-solid</title>
    <desc>Created with Sketch.</desc>
    <g id="Page-1" stroke="none" stroke-width="1" fill="none" fill-rule="evenodd">
        <g id="map-signs-solid" transform="translate(1.000000, 1.000000)" fill="#AB5E3A" fill-rule="nonzero" stroke="#090808">
            <path d="M19.8167969,3.30820312 L18.125,1.61601562 C17.890625,1.38164062 17.5726562,1.25 17.2410156,1.25 L11.25,1.25 L11.25,0.625 C11.25,0.2796875 10.9703125,0 10.625,0 L9.375,0 C9.0296875,0 8.75,0.2796875 8.75,0.625 L8.75,1.25 L2.1875,1.25 C1.66992187,1.25 1.25,1.66992188 1.25,2.1875 L1.25,5.3125 C1.25,5.83007812 1.66992187,6.25 2.1875,6.25 L17.2410156,6.25 C17.5726562,6.25 17.8902344,6.11835937 18.125,5.88398437 L19.8167969,4.1921875 C20.0609375,3.94765625 20.0609375,3.55234375 19.8167969,3.30820312 Z M8.75,19.375 C8.75,19.7203125 9.0296875,20 9.375,20 L10.625,20 C10.9703125,20 11.25,19.7203125 11.25,19.375 L11.25,15 L8.75,15 L8.75,19.375 Z M17.8125,8.75 L11.25,8.75 L11.25,7.5 L8.75,7.5 L8.75,8.75 L2.75898437,8.75 C2.42734375,8.75 2.10976562,8.88164062 1.875,9.11601562 L0.183203125,10.8082031 C-0.0609375,11.0523438 -0.0609375,11.4480469 0.183203125,11.6921875 L1.875,13.3839844 C2.109375,13.6183594 2.42734375,13.75 2.75898437,13.75 L17.8125,13.75 C18.3300781,13.75 18.75,13.3300781 18.75,12.8125 L18.75,9.6875 C18.75,9.16992188 18.3300781,8.75 17.8125,8.75 Z" id="Shape"></path>
        </g>
    </g>
</svg>